<svg width="512" height="512" viewBox="0 0 512 512" fill="none" xmlns="http://www.w3.org/2000/svg">
<path d="M373.9 24L372.7 16L162.9 391.7C156.6 403.1 142.3 407.2 130.8 401.2C130.6 401.1 130.5 401 130.3 400.9C108.1 389.5 80.5 397.6 67.9 419.1C54.4 442.1 62.5 471.6 85.6 484.5C108.5 497.3 137.3 489.1 150.1 466.2L205.9 366.2C209.1 360.5 216.2 358.5 221.9 361.7C228.4 365.3 236.5 363 240.1 356.5L348.5 162.3C372.1 120.3 381 71.6 373.9 24ZM127.1 453.3C121.4 463.4 108.6 467.1 98.5 461.4C88.4 455.7 84.7 442.9 90.4 432.8C96.1 422.7 108.9 419 119 424.7C129.2 430.4 132.8 443.2 127.1 453.3ZM259.4 284.2C252.8 284.2 247.5 278.9 247.5 272.3C247.5 265.7 252.8 260.4 259.4 260.4C266 260.4 271.3 265.7 271.3 272.3C271.3 278.9 265.9 284.2 259.4 284.2Z" stroke="white" stroke-width="10" stroke-miterlimit="10" stroke-linecap="round" stroke-linejoin="round"/>
<path d="M444.6 425.4C432.4 403.6 405 395 382.6 405.9C382.4 406 382.3 406.1 382.1 406.2C370.5 412 356.3 407.5 350.2 396.1L296.4 293.3L267.2 345.6L273.6 359.2C277.1 365.7 285.2 368.2 291.7 364.8C297.4 361.8 304.6 363.9 307.6 369.7L361.3 470.9C373.6 494 402.3 502.8 425.4 490.5C448.9 478 457.6 448.7 444.6 425.4ZM413.1 467.2C402.8 472.6 390.1 468.7 384.7 458.5C379.3 448.2 383.2 435.5 393.4 430.1C403.7 424.7 416.4 428.6 421.8 438.8C427.2 449 423.3 461.7 413.1 467.2Z" stroke="white" stroke-width="10" stroke-miterlimit="10" stroke-linecap="round" stroke-linejoin="round"/>
<path d="M216.8 255.2L246 202.8L148.5 16L147.1 24C139 71.5 146.8 120.3 169.4 162.8L216.8 255.2Z" stroke="white" stroke-width="10" stroke-miterlimit="10" stroke-linecap="round" stroke-linejoin="round"/>
</svg>
