<?xml version="1.0" encoding="UTF-8" standalone="no" ?>
<!DOCTYPE svg PUBLIC "-//W3C//DTD SVG 1.1//EN" "http://www.w3.org/Graphics/SVG/1.1/DTD/svg11.dtd">
<svg xmlns="http://www.w3.org/2000/svg" xmlns:xlink="http://www.w3.org/1999/xlink" version="1.1" width="400" height="400" viewBox="0 0 400 400" xml:space="preserve">
<desc>Created with Fabric.js 3.6.2</desc>
<defs>
</defs>
<g transform="matrix(4.17 0 0 4.17 208.96 183.98)" id="surface1"  >
<path style="stroke: none; stroke-width: 1; stroke-dasharray: none; stroke-linecap: butt; stroke-dashoffset: 0; stroke-linejoin: miter; stroke-miterlimit: 4; fill: rgb(121,134,203); fill-rule: nonzero; opacity: 1;"  transform=" translate(-26.15, -20.16)" d="M 23.1 24.2 c 0 0 -1.8 0.7 -2.6 -1.4 C 19.9 21 14 24 9 24 l -0.7 -1.6 C 14 21 19.1 18.8 22 18.3 L 44 16 C 43.1 20 23.1 24.2 23.1 24.2 z" stroke-linecap="round" />
</g>
<g transform="matrix(4.17 0 0 4.17 137.5 179.17)" id="surface1"  >
<path style="stroke: none; stroke-width: 1; stroke-dasharray: none; stroke-linecap: butt; stroke-dashoffset: 0; stroke-linejoin: miter; stroke-miterlimit: 4; fill: rgb(121,134,203); fill-rule: nonzero; opacity: 1;"  transform=" translate(-9, -19)" d="M 9 24 c -2.8 0 -5 -2.2 -5 -5 s 2.2 -5 5 -5 s 5 2.2 5 5 S 11.8 24 9 24 z M 9 16 c -1.7 0 -3 1.3 -3 3 s 1.3 3 3 3 s 3 -1.3 3 -3 S 10.7 16 9 16 z" stroke-linecap="round" />
</g>
<g transform="matrix(4.17 0 0 4.17 179.17 245.83)" id="surface1"  >
<path style="stroke: none; stroke-width: 1; stroke-dasharray: none; stroke-linecap: butt; stroke-dashoffset: 0; stroke-linejoin: miter; stroke-miterlimit: 4; fill: rgb(159,168,218); fill-rule: nonzero; opacity: 1;"  transform=" translate(-19, -35)" d="M 19 40 c -2.8 0 -5 -2.2 -5 -5 s 2.2 -5 5 -5 s 5 2.2 5 5 S 21.8 40 19 40 z M 19 32 c -1.7 0 -3 1.3 -3 3 s 1.3 3 3 3 s 3 -1.3 3 -3 S 20.7 32 19 32 z" stroke-linecap="round" />
</g>
<g transform="matrix(4.17 0 0 4.17 208.33 179.09)" id="surface1"  >
<path style="stroke: none; stroke-width: 1; stroke-dasharray: none; stroke-linecap: butt; stroke-dashoffset: 0; stroke-linejoin: miter; stroke-miterlimit: 4; fill: rgb(159,168,218); fill-rule: nonzero; opacity: 1;"  transform=" translate(-26, -18.98)" d="M 20 20 c 0 0 -1.4 1.3 0.1 2.9 C 21.4 24.3 18 28 15 32 v 2 c 5 -4 8 -8 9.8 -10.4 L 37 4 C 33 3.1 20 20 20 20 z" stroke-linecap="round" />
</g>
<g transform="matrix(4.17 0 0 4.17 170.86 272.77)" id="surface1"  >
<path style="stroke: none; stroke-width: 1; stroke-dasharray: none; stroke-linecap: butt; stroke-dashoffset: 0; stroke-linejoin: miter; stroke-miterlimit: 4; fill: rgb(159,168,218); fill-rule: nonzero; opacity: 1;"  transform=" translate(-17.01, -41.47)" d="M 17 45 c -0.3 0 -0.5 -0.1 -0.7 -0.3 c -2.3 -2.7 -1 -5 -0.1 -6.3 c 0.3 -0.5 0.9 -0.6 1.4 -0.3 S 19 40 19 40 c -0.1 0.1 -3 1 -1.3 3.3 c 0.3 0.4 0.4 1 0 1.4 C 17.5 44.9 17.3 45 17 45 z" stroke-linecap="round" />
</g>
<g transform="matrix(4.17 0 0 4.17 195.83 187.5)" id="surface1"  >
<path style="stroke: none; stroke-width: 1; stroke-dasharray: none; stroke-linecap: butt; stroke-dashoffset: 0; stroke-linejoin: miter; stroke-miterlimit: 4; fill: rgb(92,107,192); fill-rule: nonzero; opacity: 1;"  transform=" translate(-23, -21)" d="M 24 21 c 0 0.6 -0.4 1 -1 1 s -1 -0.4 -1 -1 s 0.4 -1 1 -1 S 24 20.4 24 21 z" stroke-linecap="round" />
</g>
</svg>