<svg width="400" height="491" viewBox="0 0 400 491" fill="none" xmlns="http://www.w3.org/2000/svg">
<path fill-rule="evenodd" clip-rule="evenodd" d="M317.596 0.0809901C319.7 0.464294 321.327 2.14334 321.645 4.25834L322.845 12.2624C330.108 60.9529 321.006 110.771 296.865 153.739C296.863 153.743 296.861 153.746 296.859 153.749L188.474 347.923C188.472 347.925 188.471 347.928 188.469 347.931C183.521 356.855 172.375 360.002 163.477 355.074L163.452 355.06C160.165 353.215 156.114 354.351 154.262 357.643C154.261 357.645 154.261 357.646 154.26 357.648L98.4645 457.64C84.3219 482.941 52.4794 492.017 27.1604 477.865C1.61482 463.598 -7.33131 430.987 7.58789 405.569C21.5223 381.796 52.0041 372.839 76.5704 385.445C76.8633 385.594 77.0998 385.743 77.2303 385.828C86.3639 390.515 97.5913 387.207 102.524 378.282L102.535 378.262L312.335 2.56225C313.377 0.695007 315.492 -0.302314 317.596 0.0809901ZM111.276 383.118C111.274 383.122 111.273 383.125 111.271 383.128C103.626 396.948 86.3508 401.849 72.513 394.646C72.2326 394.503 72.0054 394.361 71.8762 394.276C52.0697 384.199 27.4511 391.453 16.2138 410.628L16.212 410.631C4.13158 431.213 11.3847 457.601 32.0378 469.135L32.0395 469.136C52.5206 480.583 78.2781 473.259 89.7355 452.76L145.534 352.764L145.54 352.752C150.087 344.653 160.223 341.79 168.333 346.332C172.43 348.594 177.474 347.144 179.726 343.078L179.734 343.063L288.134 148.863L288.141 148.851C310.099 109.773 319.032 64.7542 313.838 20.3795L111.276 383.118ZM203.4 254.4C199.561 254.4 196.5 257.461 196.5 261.3C196.5 265.139 199.561 268.2 203.4 268.2C207.166 268.2 210.3 265.111 210.3 261.3C210.3 257.461 207.239 254.4 203.4 254.4ZM186.5 261.3C186.5 251.939 194.039 244.4 203.4 244.4C212.761 244.4 220.3 251.939 220.3 261.3C220.3 270.689 212.634 278.2 203.4 278.2C194.039 278.2 186.5 270.661 186.5 261.3ZM60.5425 418.054C52.897 413.74 43.1253 416.512 38.7544 424.257C34.4396 431.903 37.2124 441.675 44.9574 446.046C52.6029 450.36 62.3746 447.588 66.7455 439.843C71.0763 432.169 68.3573 422.422 60.5609 418.065L60.5425 418.054ZM65.4513 409.342C52.8977 402.262 37.0734 406.89 30.0456 419.343C22.9603 431.897 27.5876 447.725 40.0425 454.754C52.597 461.84 68.4254 457.212 75.4544 444.757C82.5213 432.235 78.0455 416.389 65.4513 409.342Z" fill="white"/>
<path fill-rule="evenodd" clip-rule="evenodd" d="M240.468 277.301C242.304 277.325 243.978 278.355 244.83 279.982L298.619 382.76C303.412 391.694 314.545 395.275 323.695 390.811C323.836 390.72 324.074 390.573 324.364 390.428L324.412 390.404C349.201 378.342 379.472 387.851 392.963 411.958L392.966 411.964C407.335 437.717 397.713 470.103 371.748 483.914C346.204 497.515 314.48 487.78 300.887 462.25L247.183 361.044L247.159 360.997C245.478 357.748 241.359 356.472 238.029 358.225L238.017 358.231C229.072 362.91 217.985 359.462 213.198 350.571C213.155 350.491 213.114 350.411 213.076 350.329L206.676 336.729C205.989 335.27 206.048 333.57 206.834 332.163L236.034 279.863C236.929 278.259 238.631 277.276 240.468 277.301ZM216.818 334.795L222.06 345.935C224.302 349.963 229.359 351.471 233.377 349.372C241.438 345.134 251.702 348.048 256.028 356.377L309.713 457.55C309.714 457.551 309.714 457.552 309.715 457.553C320.721 478.221 346.395 486.085 367.05 475.087L367.052 475.086C388.086 463.897 395.865 437.683 384.234 416.836C373.36 397.413 348.963 389.711 328.991 399.298C328.849 399.389 328.617 399.532 328.336 399.672C314.324 406.678 297.174 401.256 289.791 387.459L289.77 387.418L240.258 292.812L216.818 334.795ZM361.381 430.139C357.284 422.401 347.616 419.396 339.731 423.523C331.999 427.623 328.997 437.288 333.124 445.17C337.22 452.896 346.873 455.898 354.752 451.785C362.539 447.569 365.479 437.881 361.381 430.139ZM335.078 414.672C347.792 408.006 363.517 412.802 370.219 425.461C376.916 438.111 372.067 453.81 359.473 460.601C359.456 460.61 359.439 460.619 359.422 460.628C346.708 467.294 330.983 462.498 324.281 449.839L324.272 449.822C317.606 437.108 322.402 421.383 335.061 414.681L335.078 414.672Z" fill="white"/>
<path fill-rule="evenodd" clip-rule="evenodd" d="M91.7334 0.0590905C93.8503 -0.269305 95.9412 0.787333 96.9325 2.68643L194.432 189.486C195.211 190.979 195.187 192.763 194.368 194.234L165.168 246.634C164.27 248.245 162.558 249.231 160.714 249.199C158.87 249.168 157.193 248.123 156.351 246.482L108.968 154.115C85.8593 110.641 77.8882 60.7319 86.1711 12.1595L86.1748 12.1381L87.5748 4.13809C87.944 2.02794 89.6165 0.387486 91.7334 0.0590905ZM94.9901 20.5768C88.8841 64.8491 96.8034 109.94 117.815 149.452C117.826 149.474 117.837 149.496 117.849 149.518L160.982 233.601L184.319 191.722L94.9901 20.5768Z" fill="white"/>
</svg>
