<svg width="92" height="88" viewBox="0 0 92 88" fill="none" xmlns="http://www.w3.org/2000/svg">
<path d="M87.7 63.2C85.3 61.2 82.3 60.1 79.2 60.1L35.7 2.4C33.7 -0.199997 30 -0.799997 27.3 1.2L17 9C16.8 9.2 16.6 9.4 16.6 9.7C16.6 10 16.6 10.2 16.8 10.4L51.6 56.7C51.9 57.1 52.6 57.2 53 56.9C53.9 56.2 54.9 55.9 56 55.9C57.6 55.9 59.1 56.6 60 57.9L63 61.9C46.9 63.2 30.8 62.7 14.8 60.3C11 59.7 7.2 60.8 4.3 63.3C1.6 65.6 0 69 0 72.6C0 78.7 4.5 83.9 10.7 85C23 87 35.1 88 47 88C58.7 88 70.2 87 81.5 85.1C87.6 84 92 78.8 92 72.7V72.6C92 69 90.4 65.6 87.7 63.2ZM52.6 54.7L19 10L20.6 8.8L54.6 54C53.9 54.2 53.2 54.4 52.6 54.7ZM61.6 56.7C60.5 55.2 58.9 54.3 57 54V53.9L22.2 7.6L28.6 2.8C30.4 1.5 32.9 1.8 34.2 3.6L76.8 60.3C73 60.9 69.2 61.3 65.3 61.7L61.6 56.7ZM90 72.7C90 77.8 86.3 82.2 81.1 83.1C58.7 87 35.1 87 11 83C5.8 82.1 2 77.8 2 72.6C2 69.6 3.3 66.7 5.6 64.7C7.6 63 10.1 62.1 12.8 62.1C13.4 62.1 13.9 62.1 14.5 62.2C31.2 64.7 48.1 65.2 64.9 63.7C69.1 63.3 73.3 62.8 77.5 62.2C80.7 61.7 83.9 62.6 86.4 64.7C88.7 66.7 90 69.6 90 72.6V72.7Z" fill="#2A2A2A"/>
<path d="M79.5 65C75.4 65 72 68.4 72 72.5C72 76.6 75.4 80 79.5 80C83.6 80 87 76.6 87 72.5C87 68.4 83.6 65 79.5 65ZM79.5 78C76.5 78 74 75.5 74 72.5C74 69.5 76.5 67 79.5 67C82.5 67 85 69.5 85 72.5C85 75.5 82.5 78 79.5 78Z" fill="#2A2A2A"/>
</svg>
