<svg width="11" height="21" viewBox="0 0 11 21" fill="none" xmlns="http://www.w3.org/2000/svg">
<path opacity="0.99" d="M1.0117 0.499978V1.99998H0V2.32224V2.32424C0 2.5743 0.0230009 2.77082 0.0330009 3.00002H5.0115H6.0115H10.9549C10.9649 2.77017 10.9879 2.57309 10.9879 2.32228V2.31628V1.99988H10.0113V0.499878H9.0113V1.99988H8.0113V0.499878H7.0113V1.99988H6.5113H6.0113V0.499878H5.0113V1.99988H4.5113H4.0113V0.499878H3.0113V1.99988H2.0113V0.499878L1.0117 0.499978ZM0.0879002 3.99998C0.1869 4.90321 0.364699 5.61938 0.570299 6.2324V6.2344C0.597299 6.2768 0.616299 6.3229 0.629299 6.37112C0.663299 6.49647 0.7133 6.60141 0.7523 6.72073C0.8233 6.90169 0.8922 7.0917 0.9652 7.25589C0.9792 7.28809 0.991201 7.31389 1.0062 7.34569C2.1613 6.41519 3.8401 5.99999 5.512 5.99999C7.1799 5.99999 8.8551 6.41227 10.0101 7.33788C10.0221 7.31008 10.0331 7.28788 10.0451 7.25978C10.1411 7.03936 10.2344 6.79322 10.3264 6.54103C10.3434 6.48323 10.3674 6.42941 10.3834 6.37111C10.3934 6.33181 10.4064 6.29381 10.4244 6.25783C10.6286 5.63947 10.8049 4.91514 10.9029 4.00002L0.0879002 3.99998ZM5.5117 6.99998C3.9049 6.99998 2.3188 7.47505 1.4473 8.28318C1.4673 8.32618 1.4893 8.37318 1.5093 8.41599C1.8399 8.973 2.2058 9.47766 2.562 9.97263C3.3013 10.9999 4.019 12.0297 4.019 13.4062V17.8652C4.019 18.5262 4.4803 19.0019 5.0171 19.0019H6.0151C6.5519 19.0019 7.0132 18.5262 7.0132 17.8652V13.4062C7.0132 12.4071 7.7193 11.4985 8.4468 10.3515C8.733 9.90017 9.027 9.41188 9.3081 8.90427C9.3851 8.70292 9.4817 8.4849 9.5757 8.28318C8.7041 7.47505 7.1186 6.99998 5.5117 6.99998ZM5.5117 7.99998C6.3341 7.99998 7.0117 8.67763 7.0117 9.49998V10.5C7.0117 11.3223 6.3341 12 5.5117 12C4.6894 12 4.0117 11.3223 4.0117 10.5V9.49998C4.0117 8.67763 4.6894 7.99998 5.5117 7.99998ZM5.5117 8.99998C5.2261 8.99998 5.0117 9.21433 5.0117 9.49998V10.5C5.0117 10.7856 5.2261 11 5.5117 11C5.7974 11 6.0117 10.7856 6.0117 10.5V9.49998C6.0117 9.21433 5.7974 8.99998 5.5117 8.99998ZM2.0156 10.9355V18.5C2.0156 19.8936 3.122 21 4.5156 21H6.5156C7.9093 21 9.0156 19.8936 9.0156 18.5V11.3535C8.4475 12.2781 8.0137 13.0609 8.0137 13.4062V17.8652C8.0137 19.0174 7.1386 20.0019 6.0156 20.0019H5.0176C3.8946 20.0019 3.0195 19.0175 3.0195 17.8652V13.4062C3.0195 12.5109 2.6024 11.7776 2.0156 10.9355Z" fill="#2A2A2A"/>
</svg>
