<svg width="1015" height="449" viewBox="0 0 1015 449" fill="none" xmlns="http://www.w3.org/2000/svg">
<path fill-rule="evenodd" clip-rule="evenodd" d="M351.224 11.9029C370.834 2.00231 387.367 0 400.487 0C443.044 0 480.457 19.905 507.166 50.577C533.904 19.8617 571.362 0 613.865 0C626.985 0 643.519 2.00231 663.129 11.9029C682.263 21.5631 703.02 38.0776 726.152 65.0148C739.415 80.4608 749.106 99.3083 757.283 116.65C759.791 121.97 762.145 127.113 764.432 132.112C770.057 144.402 775.282 155.821 781.427 166.849C789.841 181.948 798.543 193.47 808.845 201.27C818.604 208.658 831.019 213.645 848.982 213.645C884.578 213.645 913.342 192.348 934.816 167.066C945.321 154.697 953.333 142.209 958.722 132.771C961.401 128.079 963.39 124.213 964.679 121.59C965.322 120.28 965.788 119.286 966.076 118.66C966.22 118.347 966.319 118.127 966.373 118.005C966.397 117.951 966.412 117.917 966.418 117.903C971.127 107.051 982.801 100.982 994.392 103.368C1006 105.757 1014.33 115.966 1014.35 127.816L989.352 127.855C1014.35 127.816 1014.35 127.826 1014.35 127.838V127.951L1014.35 128.207C1014.35 128.418 1014.35 128.709 1014.34 129.077C1014.34 129.812 1014.32 130.856 1014.29 132.186C1014.23 134.846 1014.1 138.657 1013.85 143.442C1013.35 153.004 1012.34 166.507 1010.31 182.539C1006.29 214.43 998.136 257.147 981.454 298.951C964.826 340.618 938.997 383.183 898.525 412.398C857.31 442.149 803.378 456.257 734.748 444.831C611.677 424.357 543.914 369.822 507.112 315.549C470.316 369.819 402.573 424.356 279.604 444.831C210.975 456.257 157.042 442.149 115.827 412.398C75.3548 383.183 49.5258 340.618 32.8981 298.951C16.2162 257.147 8.06583 214.43 4.03806 182.539C2.01329 166.507 1.00521 153.004 0.502455 143.442C0.250849 138.657 0.125162 134.846 0.0624142 132.186C0.0310307 130.856 0.0153656 129.812 0.0075798 129.077C0.0036869 128.709 0.0017643 128.418 0.000833511 128.207C0.000368118 128.102 0.000150681 128.016 5.91278e-05 127.951L0 127.868L1.33514e-05 127.838C2.47955e-05 127.826 3.8147e-05 127.816 25 127.855L3.8147e-05 127.816C0.0184536 115.966 8.35345 105.757 19.96 103.368C31.5509 100.982 43.2242 107.05 47.9334 117.902C47.9393 117.915 47.9545 117.95 47.9791 118.005C48.0331 118.127 48.1321 118.347 48.2759 118.66C48.5637 119.286 49.0299 120.28 49.6735 121.59C50.9625 124.213 52.9516 128.079 55.63 132.771C61.0186 142.209 69.0311 154.697 79.5364 167.066C101.01 192.348 129.774 213.645 165.37 213.645C183.312 213.645 195.72 208.661 205.478 201.271C215.779 193.471 224.485 181.946 232.903 166.844C239.052 155.815 244.281 144.395 249.91 132.104C252.199 127.105 254.553 121.963 257.063 116.644C265.244 99.3034 274.939 80.4584 288.2 65.0148C311.332 38.0777 332.09 21.5631 351.224 11.9029ZM61.1279 219.963C65.3937 239.451 71.2668 260.196 79.337 280.419C93.9567 317.054 115.064 350.181 145.092 371.857C174.378 392.997 214.513 404.98 271.392 395.51C409.439 372.524 462.65 303.854 484.144 253.861C488.09 244.683 497.121 238.735 507.111 238.735C517.102 238.735 526.133 244.683 530.079 253.861C551.569 303.848 604.776 372.522 742.957 395.51L742.96 395.51C799.839 404.98 839.974 392.997 869.26 371.857C899.289 350.181 920.395 317.054 935.015 280.419C943.085 260.196 948.958 239.451 953.224 219.963C927.892 243.183 893.096 263.645 848.982 263.645C820.48 263.645 797.39 255.311 778.663 241.133C760.48 227.366 747.718 209.075 737.75 191.187C730.569 178.3 724.074 164.107 718.159 151.18C716.054 146.579 714.021 142.138 712.058 137.973C704.079 121.052 696.76 107.535 688.218 97.5888C667.999 74.0433 652.221 62.4069 640.594 56.5369C629.443 50.9072 620.992 50 613.865 50C579.708 50 547.809 71.0839 529.298 106.248C524.976 114.458 516.463 119.599 507.185 119.603C497.907 119.606 489.391 114.471 485.063 106.265C466.536 71.1331 434.683 50 400.487 50C393.36 50 384.909 50.9072 373.758 56.5369C362.131 62.4069 346.353 74.0433 326.134 97.5888C317.59 107.538 310.266 121.057 302.282 137.979C300.318 142.143 298.284 146.584 296.178 151.185C290.258 164.112 283.76 178.304 276.575 191.191C266.604 209.077 253.842 227.366 235.663 241.132C216.942 255.309 193.86 263.645 165.37 263.645C121.257 263.645 86.4599 243.183 61.1279 219.963Z" fill="white"/>
</svg>
