<svg width="118" height="23" viewBox="0 0 118 23" fill="none" xmlns="http://www.w3.org/2000/svg">
<path d="M0.48999 22V0.99998H10.75C13.39 0.99998 15.37 1.49998 16.69 2.49998C18.03 3.49998 18.7 4.81998 18.7 6.45998C18.7 7.55998 18.43 8.51998 17.89 9.33998C17.35 10.14 16.61 10.76 15.67 11.2C14.73 11.64 13.65 11.86 12.43 11.86L13 10.63C14.32 10.63 15.49 10.85 16.51 11.29C17.53 11.71 18.32 12.34 18.88 13.18C19.46 14.02 19.75 15.05 19.75 16.27C19.75 18.07 19.04 19.48 17.62 20.5C16.2 21.5 14.11 22 11.35 22H0.48999ZM5.31999 18.34H10.99C12.25 18.34 13.2 18.14 13.84 17.74C14.5 17.32 14.83 16.66 14.83 15.76C14.83 14.88 14.5 14.23 13.84 13.81C13.2 13.37 12.25 13.15 10.99 13.15H4.95999V9.60998H10.15C11.33 9.60998 12.23 9.40998 12.85 9.00998C13.49 8.58998 13.81 7.95998 13.81 7.11998C13.81 6.29998 13.49 5.68998 12.85 5.28998C12.23 4.86998 11.33 4.65998 10.15 4.65998H5.31999V18.34Z" fill="white"/>
<path d="M20.6694 22L30.0294 0.99998H34.8294L44.2194 22H39.1194L31.4394 3.45998H33.3594L25.6494 22H20.6694ZM25.3494 17.5L26.6394 13.81H37.4394L38.7594 17.5H25.3494Z" fill="white"/>
<path d="M46.3982 22V0.99998H55.4882C57.3682 0.99998 58.9882 1.30998 60.3482 1.92998C61.7082 2.52998 62.7582 3.39998 63.4982 4.53998C64.2382 5.67998 64.6082 7.03998 64.6082 8.61998C64.6082 10.18 64.2382 11.53 63.4982 12.67C62.7582 13.79 61.7082 14.65 60.3482 15.25C58.9882 15.85 57.3682 16.15 55.4882 16.15H49.0982L51.2582 14.02V22H46.3982ZM59.7482 22L54.4982 14.38H59.6882L64.9982 22H59.7482ZM51.2582 14.56L49.0982 12.28H55.2182C56.7182 12.28 57.8382 11.96 58.5782 11.32C59.3182 10.66 59.6882 9.75998 59.6882 8.61998C59.6882 7.45998 59.3182 6.55998 58.5782 5.91998C57.8382 5.27998 56.7182 4.95998 55.2182 4.95998H49.0982L51.2582 2.64998V14.56Z" fill="white"/>
<path d="M75.0587 22.36C73.5187 22.36 72.1487 22.11 70.9487 21.61C69.7487 21.11 68.7987 20.43 68.0987 19.57C67.3987 18.71 67.0487 17.72 67.0487 16.6C67.0487 15.56 67.2787 14.63 67.7387 13.81C68.1987 12.97 68.9287 12.19 69.9287 11.47C70.9287 10.73 72.1987 10.01 73.7387 9.30998C74.8587 8.78998 75.7387 8.32998 76.3787 7.92998C77.0187 7.52998 77.4687 7.14998 77.7287 6.78998C77.9887 6.40998 78.1187 6.02998 78.1187 5.64998C78.1187 5.12998 77.9387 4.70998 77.5787 4.38998C77.2387 4.06998 76.7287 3.90998 76.0487 3.90998C75.3287 3.90998 74.7687 4.08998 74.3687 4.44998C73.9687 4.80998 73.7687 5.26998 73.7687 5.82998C73.7687 6.12998 73.8287 6.42998 73.9487 6.72998C74.0687 7.00998 74.2987 7.33998 74.6387 7.71998C74.9787 8.07998 75.4587 8.54998 76.0787 9.12998L87.1487 19.39L84.5987 22.36L72.3887 11.02C71.6887 10.38 71.1287 9.77998 70.7087 9.21998C70.2887 8.65998 69.9787 8.10998 69.7787 7.56998C69.5987 7.02998 69.5087 6.46998 69.5087 5.88998C69.5087 4.86998 69.7787 3.96998 70.3187 3.18998C70.8587 2.40998 71.6187 1.80998 72.5987 1.38998C73.5787 0.949981 74.7287 0.72998 76.0487 0.72998C77.2687 0.72998 78.3187 0.929981 79.1987 1.32998C80.0987 1.70998 80.7987 2.25998 81.2987 2.97998C81.8187 3.69998 82.0787 4.55998 82.0787 5.55998C82.0787 6.43998 81.8587 7.24998 81.4187 7.98998C80.9787 8.70998 80.2887 9.38998 79.3487 10.03C78.4287 10.67 77.2187 11.32 75.7187 11.98C74.6987 12.44 73.8887 12.89 73.2887 13.33C72.7087 13.75 72.2887 14.18 72.0287 14.62C71.7687 15.06 71.6387 15.55 71.6387 16.09C71.6387 16.59 71.7887 17.04 72.0887 17.44C72.4087 17.84 72.8487 18.15 73.4087 18.37C73.9687 18.59 74.6287 18.7 75.3887 18.7C76.6087 18.7 77.7287 18.42 78.7487 17.86C79.7687 17.28 80.6287 16.43 81.3287 15.31C82.0487 14.17 82.5587 12.79 82.8587 11.17L86.6087 12.34C86.1887 14.38 85.4387 16.15 84.3587 17.65C83.2787 19.15 81.9487 20.31 80.3687 21.13C78.7887 21.95 77.0187 22.36 75.0587 22.36Z" fill="white"/>
<path d="M90.2849 22V0.99998H99.3749C101.255 0.99998 102.875 1.30998 104.235 1.92998C105.595 2.52998 106.645 3.39998 107.385 4.53998C108.125 5.67998 108.495 7.03998 108.495 8.61998C108.495 10.18 108.125 11.53 107.385 12.67C106.645 13.79 105.595 14.65 104.235 15.25C102.875 15.85 101.255 16.15 99.3749 16.15H92.9849L95.1449 14.02V22H90.2849ZM103.635 22L98.3849 14.38H103.575L108.885 22H103.635ZM95.1449 14.56L92.9849 12.28H99.1049C100.605 12.28 101.725 11.96 102.465 11.32C103.205 10.66 103.575 9.75998 103.575 8.61998C103.575 7.45998 103.205 6.55998 102.465 5.91998C101.725 5.27998 100.605 4.95998 99.1049 4.95998H92.9849L95.1449 2.64998V14.56Z" fill="white"/>
<path d="M112.345 22V0.99998H117.205V22H112.345Z" fill="white"/>
</svg>
